# xmcd
#
# Track frame offsets:
#	150
#	17650
#	34515
#	53463
#
# Disc length: 1166 seconds
# Revision: 0
# Processed by: cddbd v1.5.2PL0 Copyright (c) Steve Scherf et al.
# Submitted via: dBpowerAMP V12.0
#
DISCID=20048c04
DTITLE=Kele Le Roc - My Love [Single Part 2]
DYEAR=1999
DGENRE=R&B
TTITLE0=My Love [7” Rude Boy Edit]
TTITLE1=My Love [Ignorants Edit]
TTITLE2=My Love [M!s Lush Vocal Edit]
TTITLE3=My Love [Paul Masterson Club Mix]
EXTD=
EXTT0=
EXTT1=
EXTT2=
EXTT3=
PLAYORDER=
